<?xml version="1.0" encoding="utf-8"?>
<svg viewBox="120.447 -45.465 211.83 420.529" xmlns="http://www.w3.org/2000/svg" xmlns:bx="https://boxy-svg.com">
  <defs>
    <pattern id="pattern-0" x="0" y="0" width="25" height="25" patternUnits="userSpaceOnUse" viewBox="0 0 100 100">
      <rect x="0" y="0" width="50" height="100" style="fill: black;"/>
    </pattern>
  </defs>
  <path style="stroke-width: 0px; stroke: rgb(88, 99, 52);" d="M 148.732 163.721 H 309.706 V 352.398 A 15 15 0 0 1 294.706 367.398 H 163.732 A 15 15 0 0 1 148.732 352.398 V 163.721 Z" bx:shape="rect 148.732 163.721 160.974 203.677 0 0 15 15 1@fdc632d4"/>
  <rect x="156.213" y="169.2" width="2.5" height="187.936" style="fill: rgb(255, 255, 255);"/>
  <rect x="177.727" y="169.2" width="2.5" height="187.936" style="fill: rgb(255, 255, 255);"/>
  <rect x="202.464" y="169.2" width="2.5" height="187.936" style="fill: rgb(255, 255, 255);"/>
  <rect x="229.428" y="169.604" width="2.5" height="187.936" style="fill: rgb(255, 255, 255);"/>
  <rect x="259.173" y="169.234" width="2.5" height="187.936" style="fill: rgb(255, 255, 255);"/>
  <rect x="281.248" y="169.458" width="12.16" height="187.936" style="fill: rgb(255, 255, 255);"/>
  <rect x="144.976" y="109.132" width="167.079" height="51.39" style="" bx:origin="0.506567 0.5"/>
  <path style="stroke: rgb(0, 0, 0);" d="M 166.726 18.754 C 166.726 18.754 161.991 27.674 161.991 27.712 C 161.991 27.75 185.772 99.2 185.772 99.2 L 166.726 18.754 Z"/>
  <path style="stroke: rgb(0, 0, 0);" d="M 273.422 97.69 C 273.422 97.69 268.687 88.77 268.687 88.732 C 268.687 88.694 292.468 17.244 292.468 17.244 L 273.422 97.69 Z" transform="matrix(-1, 0, 0, -1, 561.154999, 114.933998)"/>
  <path style="stroke: rgb(0, 0, 0);" d="M 216.796 7.158 L 233.026 6.859 L 226.713 100.165 L 216.796 7.158 Z"/>
  <path d="M 660.199 391.902 L 661.25 394.925 L 664.449 394.99 L 661.899 396.923 L 662.826 399.986 L 660.199 398.159 L 657.572 399.986 L 658.499 396.923 L 655.949 394.99 L 659.148 394.925 Z" style="" transform="matrix(-0.895958, -0.444139, 0.444139, -0.895958, 601.998229, 688.798505)" bx:shape="star 660.199 396.371 4.469 4.469 0.4 5 1@75e6d01c"/>
  <path d="M 815.133 387.216 L 815.527 388.349 L 816.726 388.373 L 815.77 389.098 L 816.118 390.246 L 815.133 389.561 L 814.148 390.246 L 814.496 389.098 L 813.54 388.373 L 814.739 388.349 Z" style="" transform="matrix(-0.998755, -0.049893, 0.049893, -0.998755, 1040.440894, 466.66478)" bx:shape="star 815.133 388.891 1.675 1.675 0.4 5 1@3fa45360"/>
  <path d="M 843.977 407.645 L 846.058 413.632 L 852.395 413.761 L 847.344 417.59 L 849.179 423.657 L 843.977 420.036 L 838.775 423.657 L 840.61 417.59 L 835.559 413.761 L 841.896 413.632 Z" style="" transform="matrix(-0.999972, -0.00742, 0.00742, -0.999972, 1097.609713, 470.882413)" bx:shape="star 843.977 416.496 8.851 8.851 0.4 5 1@3cd1b80f"/>
  <path d="M 711.688 470.479 L 713.592 475.957 L 719.391 476.075 L 714.769 479.579 L 716.448 485.13 L 711.688 481.818 L 706.928 485.13 L 708.607 479.579 L 703.985 476.075 L 709.784 475.957 Z" style="" transform="matrix(0.977924, -0.208963, 0.208963, 0.977924, -587.515797, -247.702507)" bx:shape="star 711.688 478.578 8.099 8.099 0.4 5 1@b3f8068e"/>
  <path d="M 716.555 354.655 L 717.272 356.717 L 719.454 356.761 L 717.715 358.08 L 718.347 360.169 L 716.555 358.922 L 714.763 360.169 L 715.395 358.08 L 713.656 356.761 L 715.838 356.717 Z" style="" transform="matrix(0.998358, 0.057287, -0.057287, 0.998358, -486.823634, -372.491773)" bx:shape="star 716.555 357.703 3.048 3.048 0.4 5 1@5dc9ef54"/>
  <path d="M 859.863 321.999 L 860.617 324.673 L 862.915 324.731 L 861.084 326.442 L 861.749 329.152 L 859.863 327.535 L 857.977 329.152 L 858.642 326.442 L 856.811 324.731 L 859.109 324.673 Z" style="" transform="matrix(0.209529, 0.977802, 0.977802, -0.209529, -228.161922, -748.496619)" bx:shape="star 859.863 325.953 3.209 3.954 0.4 5 1@5d17d422"/>
  <path d="M 839.047 330.326 L 841.161 336.407 L 847.597 336.538 L 842.467 340.427 L 844.331 346.589 L 839.047 342.912 L 833.763 346.589 L 835.627 340.427 L 830.497 336.538 L 836.933 336.407 Z" style="" transform="matrix(-0.63083, 0.775921, -0.775921, -0.63083, 1047.441475, -418.335285)" bx:shape="star 839.047 339.316 8.99 8.99 0.4 5 1@401ebe22"/>
  <circle style="" cx="51.413" cy="-8.308" r="2.779" transform="matrix(1, 0, 0, 1.001777, 167.229172, 2.39981)"/>
  <circle style="" cx="51.413" cy="-8.308" r="2.779" transform="matrix(1, 0, 0, 1.001777, 158.44426, 57.925537)"/>
  <circle style="" cx="51.413" cy="-8.308" r="2.779" transform="matrix(0.777352, 0, 0, 0.843695, 135.208023, 18.021118)"/>
  <circle style="" cx="51.413" cy="-8.308" r="2.779" transform="matrix(1, 0, 0, 1.001777, 207.362961, 85.420807)"/>
  <circle style="" cx="51.413" cy="-8.308" r="2.779" transform="matrix(1, 0, 0, 1.001777, 225.487747, 6.524204)"/>
  <circle style="" cx="51.413" cy="-8.308" r="2.779" transform="matrix(1, 0, 0, 1.001777, 213.526093, 42.987038)"/>
  <circle style="" cx="51.413" cy="-8.308" r="2.779" transform="matrix(1, 0, 0, 1.001777, 132.900986, 31.425745)"/>
  <circle style="" cx="51.413" cy="-8.308" r="2.779" transform="matrix(1, 0, 0, 1.001777, 135.018356, 63.678726)"/>
  <circle style="" cx="51.413" cy="-8.308" r="2.779" transform="matrix(1, 0, 0, 1.001777, 180.782715, -14.776009)"/>
  <circle style="" cx="51.413" cy="-8.308" r="2.779" transform="matrix(1.211964, 0, 0, 1.126083, 177.818481, 40.940762)"/>
  <path d="M 716.555 354.655 L 717.272 356.717 L 719.454 356.761 L 717.715 358.08 L 718.347 360.169 L 716.555 358.922 L 714.763 360.169 L 715.395 358.08 L 713.656 356.761 L 715.838 356.717 Z" style="" transform="matrix(0.998358, 0.057287, -0.057287, 0.998358, -496.680828, -395.775374)" bx:shape="star 716.555 357.703 3.048 3.048 0.4 5 1@5dc9ef54"/>
  <path d="M 716.555 354.655 L 717.272 356.717 L 719.454 356.761 L 717.715 358.08 L 718.347 360.169 L 716.555 358.922 L 714.763 360.169 L 715.395 358.08 L 713.656 356.761 L 715.838 356.717 Z" style="" transform="matrix(0.998358, 0.057287, -0.057287, 0.998358, -451.111862, -401.962767)" bx:shape="star 716.555 357.703 3.048 3.048 0.4 5 1@5dc9ef54"/>
  <path d="M 716.555 354.655 L 717.272 356.717 L 719.454 356.761 L 717.715 358.08 L 718.347 360.169 L 716.555 358.922 L 714.763 360.169 L 715.395 358.08 L 713.656 356.761 L 715.838 356.717 Z" style="" transform="matrix(0.998358, 0.057287, -0.057287, 0.998358, -428.681446, -415.535442)" bx:shape="star 716.555 357.703 3.048 3.048 0.4 5 1@5dc9ef54"/>
  <circle style="" cx="181.787" cy="-12.572" r="8.914"/>
</svg>